<svg version="1.1" viewBox="0.0 0.0 864.0 864.0" fill="none" stroke="none" stroke-linecap="square" stroke-miterlimit="10" xmlns:xlink="http://www.w3.org/1999/xlink" xmlns="http://www.w3.org/2000/svg"><clipPath id="p.0"><path d="m0 0l864.0 0l0 864.0l-864.0 0l0 -864.0z" clip-rule="nonzero"/></clipPath><g clip-path="url(#p.0)"><path fill="none" d="m0 0l864.0 0l0 864.0l-864.0 0z" fill-rule="evenodd"/><path fill="#0b6ab0" d="m126.59581 472.22684l0 0c0 -170.75598 138.44624 -309.1811 309.22833 -309.1811l0 0c82.01245 0 160.6659 32.57434 218.65747 90.55705c57.991577 57.98271 90.57086 136.62413 90.57086 218.62404l0 0c0 170.75601 -138.44623 309.18112 -309.22833 309.18112l0 0c-170.7821 0 -309.22833 -138.42511 -309.22833 -309.18112z" fill-rule="evenodd"/><g filter="url(#shadowFilter-p.1)"><use xlink:href="#p.1" transform="matrix(1.0 0.0 0.0 1.0 0.0 4.0)"/></g><defs><filter id="shadowFilter-p.1" filterUnits="userSpaceOnUse"><feGaussianBlur in="SourceAlpha" stdDeviation="2.0" result="blur"/><feComponentTransfer in="blur" color-interpolation-filters="sRGB"><feFuncR type="linear" slope="0" intercept="0.0"/><feFuncG type="linear" slope="0" intercept="0.0"/><feFuncB type="linear" slope="0" intercept="0.0"/><feFuncA type="linear" slope="0.5" intercept="0"/></feComponentTransfer></filter></defs><g id="p.1"><path fill="#f5a400" d="m455.10373 106.9006l92.482025 221.85016l-68.87518 -3.2059631l139.81439 212.3999l-70.33301 0.9835205l151.10956 325.07172l-333.52072 -329.26654l84.596924 2.475586l-206.00389 -208.09964l101.04344 -3.6715088l-217.78284 -218.92232z" fill-rule="evenodd"/></g></g></svg>